<?xml version="1.0" encoding="UTF-8"?>
<svg id="Layer_1" data-name="Layer 1" xmlns="http://www.w3.org/2000/svg" viewBox="0 0 160 40">
  <defs>
    <style>
      .cls-1 {
        fill: #fff;
      }

      .cls-2 {
        fill: #da5828;
      }
    </style>
  </defs>
  <polygon class="cls-1" points="29.74 3.31 29.74 17.52 9 17.52 9 3.31 3.36 3.31 3.36 37.37 9 37.37 9 23.16 29.74 23.16 29.74 37.37 35.38 37.37 35.38 3.31 29.74 3.31"/>
  <polygon class="cls-2" points="156.64 2.8 149 2.8 136.8 15.96 124.59 2.8 116.96 2.8 132.98 20.09 116.96 37.37 124.59 37.37 136.8 24.21 149 37.37 156.64 37.37 140.61 20.09 156.64 2.8"/>
  <path class="cls-1" d="M116.75,17.25h-5.8s0,.02,0,.03h-11.88v5.62h11.84c-1.28,5.52-6.13,9.62-11.93,9.62-6.77,0-12.26-5.6-12.26-12.52s5.49-12.52,12.26-12.52c3.51,0,6.68,1.51,8.92,3.92l3.9-4.18c-3.26-3.36-7.8-5.45-12.81-5.45-9.92,0-17.97,8.16-17.97,18.22s8.04,18.22,17.97,18.22,17.97-8.16,17.97-18.22c0-.93-.07-1.85-.2-2.75Z"/>
  <polygon class="cls-1" points="60.5 14.21 73.68 37.37 80.17 37.37 60.5 2.8 40.83 37.37 47.32 37.37 60.5 14.21"/>
</svg>